<svg height="500pt" viewBox="0 -29 500.05413 500" width="500pt" xmlns="http://www.w3.org/2000/svg"><path d="m258.625 234.574219c39.148438-10.816407 67.886719-56.007813 67.886719-108.542969 0-61.207031-38.578125-111-86-111-47.417969 0-86 49.792969-86 111 0 52.535156 28.742187 97.726562 67.890625 108.542969l-5.875 17.980469c-.597656 1.828124-.285156 3.828124.84375 5.386718 1.128906 1.554688 2.933594 2.476563 4.855468 2.476563h12.292969c0 .074219-.011719.148437-.011719.222656v175.484375c0 3.3125 2.683594 6 6 6 3.3125 0 6-2.6875 6-6v-175.484375c0-.074219-.007812-.148437-.011718-.222656h12.292968c1.917969 0 3.726563-.921875 4.851563-2.476563 1.128906-1.558594 1.445313-3.558594.847656-5.386718zm-28.121094 13.847656 5.355469-16.398437c.539063-1.660157.332031-3.472657-.570313-4.964844-.902343-1.496094-2.410156-2.523438-4.128906-2.8125-36.855468-6.257813-64.648437-48.480469-64.648437-98.21875 0-54.585938 33.203125-99 74-99 40.800781 0 74 44.414062 74 99 0 49.738281-27.789063 91.960937-64.640625 98.21875-1.722656.289062-3.230469 1.316406-4.132813 2.8125-.902343 1.492187-1.109375 3.304687-.566406 4.964844l5.351563 16.398437zm0 0"/><path d="m248.976562 58.957031c4.714844 1.867188 15.070313 9.113281 24 24.425781 7.175782 12.300782 15.3125 33.480469 13.320313 64.546876-.214844 3.304687 2.292969 6.160156 5.597656 6.371093.132813.007813.265625.011719.390625.011719 3.164063-.003906 5.777344-2.457031 5.980469-5.613281 2.1875-34.085938-6.910156-57.621094-14.925781-71.363281-9.886719-16.960938-22.3125-26.507813-29.941406-29.535157-3.078126-1.21875-6.566407.289063-7.789063 3.367188-1.21875 3.082031.289063 6.570312 3.367187 7.789062zm0 0"/><path d="m386.507812 148.164062c-41.90625 0-76 43.90625-76 97.875 0 45.96875 25.011719 85.5625 59.199219 95.484376l-4.898437 15c-.597656 1.828124-.28125 3.828124.84375 5.382812 1.128906 1.558594 2.933594 2.480469 4.855468 2.480469h10v71.742187c0 3.3125 2.6875 6 6 6s6-2.6875 6-6v-71.746094h10c1.921876-.003906 3.726563-.925781 4.855469-2.480468 1.128907-1.554688 1.441407-3.558594.84375-5.382813l-4.898437-15c34.1875-9.925781 59.199218-49.519531 59.199218-95.484375 0-53.960937-34.09375-97.871094-76-97.871094zm8.0625 183.074219c-1.722656.292969-3.230468 1.316407-4.132812 2.8125-.902344 1.492188-1.109375 3.304688-.566406 4.964844l4.363281 13.367187h-15.449219l4.363282-13.367187c.542968-1.660156.332031-3.472656-.570313-4.964844-.902344-1.496093-2.410156-2.519531-4.128906-2.8125-31.890625-5.414062-55.941407-42.042969-55.941407-85.199219 0-47.351562 28.710938-85.875 64-85.875 35.289063 0 64 38.523438 64 85.875 0 43.15625-24.046874 79.785157-55.9375 85.199219zm0 0"/><path d="m398.0625 176.894531c-3.078125-1.222656-6.566406.285157-7.789062 3.367188-1.21875 3.082031.289062 6.566406 3.367187 7.789062 11.34375 4.5 35.195313 30.152344 32.183594 77.105469-.210938 3.304688 2.296875 6.15625 5.601562 6.371094.128907.007812.261719.011718.390625.011718 3.160156-.003906 5.777344-2.460937 5.980469-5.613281 1.925781-30.015625-6.09375-50.753906-13.164063-62.871093-8.75-15.003907-19.78125-23.46875-26.570312-26.160157zm0 0"/><path d="m112.535156 185.585938c-36.390625 0-66 38.019531-66 84.75 0 39.402343 21.285156 73.402343 50.511719 82.414062l-3.921875 12.015625c-.59375 1.828125-.28125 3.832031.847656 5.386719 1.128906 1.554687 2.933594 2.476562 4.855469 2.476562h7.710937v63.496094c0 3.3125 2.683594 6 6 6 3.3125 0 6-2.6875 6-6v-63.496094h7.707032c1.921875 0 3.726562-.921875 4.855468-2.476562 1.128907-1.554688 1.441407-3.558594.847657-5.386719l-3.921875-12.015625c29.226562-9.015625 50.507812-43.015625 50.507812-82.414062 0-46.730469-29.609375-84.75-66-84.75zm6.765625 156.933593c-1.71875.292969-3.226562 1.316407-4.132812 2.8125-.902344 1.492188-1.109375 3.304688-.566407 4.964844l3.375 10.332031h-10.882812l3.375-10.332031c.542969-1.660156.335938-3.472656-.566406-4.964844-.902344-1.496093-2.414063-2.519531-4.132813-2.8125-26.929687-4.570312-47.234375-35.601562-47.234375-72.183593 0-40.113282 24.226563-72.75 54-72.75 29.777344 0 54 32.636718 54 72.75 0 36.582031-20.308594 67.613281-47.234375 72.183593zm0 0"/><path d="m122.757812 210.273438c-3.082031-1.21875-6.570312.289062-7.789062 3.367187-1.222656 3.082031.285156 6.570313 3.367188 7.789063 6.042968 2.402343 29.84375 21.535156 27.042968 65.242187-.210937 3.304687 2.296875 6.15625 5.601563 6.371094.128906.007812.261719.011719.390625.011719 3.160156-.003907 5.777344-2.460938 5.980468-5.617188 3.242188-50.507812-24.589843-73.199219-34.59375-77.164062zm0 0"/><path d="m456.507812 87.027344c11.597657 0 21-9.402344 21-21s-9.402343-21-21-21c-11.597656 0-21 9.402344-21 21 .015626 11.59375 9.40625 20.988281 21 21zm0-30c4.972657 0 9 4.027344 9 9 0 4.96875-4.027343 9-9 9-4.96875 0-9-4.03125-9-9 .007813-4.96875 4.03125-8.996094 9-9zm0 0"/><path d="m286.898438 309.492188c-11.597657 0-21 9.402343-21 21 0 11.601562 9.402343 21 21 21 11.597656 0 21-9.398438 21-21-.015626-11.589844-9.410157-20.984376-21-21zm0 30c-4.972657 0-9-4.027344-9-9 0-4.96875 4.027343-9 9-9 4.96875 0 9 4.03125 9 9-.007813 4.96875-4.03125 8.996093-9 9zm0 0"/><path d="m78.441406 21.027344c0-11.597656-9.402344-21.0000002-21-21.0000002s-21 9.4023442-21 21.0000002 9.402344 21 21 21c11.589844-.011719 20.984375-9.40625 21-21zm-30 0c0-4.972656 4.027344-9 9-9 4.96875 0 9 4.027344 9 9 0 4.96875-4.03125 9-9 9-4.96875-.003906-8.996094-4.03125-9-9zm0 0"/><path d="m55.644531 145.492188c0 11.597656 9.402344 21 21 21 11.597657 0 21-9.402344 21-21 0-11.597657-9.402343-21-21-21-11.589843.011718-20.984375 9.40625-21 21zm30 0c0 4.96875-4.027343 9-9 9-4.96875 0-9-4.03125-9-9 0-4.972657 4.03125-9 9-9 4.96875.003906 8.996094 4.03125 9 9zm0 0"/><path d="m493.992188 155.054688h-.128907l-9 .183593-.1875-9c-.066406-3.3125-2.808593-5.941406-6.125-5.875-3.3125.070313-5.941406 2.8125-5.875 6.125l.1875 9-9 .1875c-3.3125.035157-5.972656 2.75-5.9375 6.0625.035157 3.3125 2.746094 5.972657 6.0625 5.9375h.125l9-.1875.1875 9c.066407 3.265625 2.734375 5.878907 6 5.875h.125c3.316407-.066406 5.945313-2.808593 5.875-6.121093l-.183593-9 9-.1875c3.3125-.035157 5.96875-2.75 5.9375-6.0625-.035157-3.3125-2.75-5.972657-6.0625-5.9375zm0 0"/><path d="m36.066406 190.539062h-.128906l-9 .1875-.1875-9c-.066406-3.265624-2.734375-5.875-6-5.875h-.125c-3.3125.070313-5.941406 2.8125-5.871094 6.125l.183594 9-9 .1875c-3.3125.03125-5.9726562 2.746094-5.9375 6.058594.0351562 3.316406 2.746094 5.972656 6.0625 5.941406h.125l9-.1875.1875 9c.070312 3.265626 2.734375 5.875 6 5.875h.128906c3.3125-.070312 5.941406-2.8125 5.875-6.125l-.1875-9 9-.1875c3.3125-.03125 5.972656-2.746093 5.9375-6.058593-.035156-3.316407-2.746094-5.972657-6.0625-5.941407zm0 0"/><path d="m105.542969 65.652344h.128906l9-.183594.1875 9c.066406 3.261719 2.734375 5.875 6 5.875h.125c3.3125-.070312 5.945313-2.8125 5.875-6.125l-.1875-9 9-.1875c3.3125-.035156 5.972656-2.75 5.9375-6.0625s-2.746094-5.972656-6.0625-5.9375h-.121094l-9 .1875-.1875-9c-.066406-3.265625-2.734375-5.875-6-5.875h-.128906c-3.3125.066406-5.941406 2.808594-5.871094 6.125l.1875 9-9 .183594c-3.316406.035156-5.972656 2.75-5.941406 6.0625.035156 3.3125 2.75 5.972656 6.0625 5.9375zm0 0"/><path d="m379.386719 74.546875c-.066407-3.261719-2.734375-5.875-6-5.875h-.125c-3.3125.070313-5.945313 2.8125-5.875 6.125l.1875 9-9 .1875c-3.3125.035156-5.972657 2.746094-5.9375 6.0625.03125 3.3125 2.746093 5.972656 6.058593 5.9375h.128907l9-.1875.1875 9c.066406 3.265625 2.734375 5.875 6 5.875h.125c3.3125-.070313 5.945312-2.8125 5.875-6.125l-.1875-9 9-.1875c3.316406-.03125 5.972656-2.746094 5.941406-6.058594-.035156-3.316406-2.75-5.972656-6.0625-5.941406h-.128906l-9 .1875zm0 0"/></svg>